<svg width="98" height="40" viewBox="0 0 98 40" fill="none" xmlns="http://www.w3.org/2000/svg">
<path d="M19.1433 0.0353374C16.6197 0.135218 14.9817 0.414879 14.702 0.787762C14.4224 1.1673 14.5023 2.0529 14.8485 2.39915L15.035 2.58559H16.4066H17.7783V11.8011C17.7783 20.8435 17.7783 21.0166 17.6451 21.1764C17.492 21.3762 17.0658 21.4694 16.0804 21.5294C15.3546 21.5693 15.2347 21.6292 15.0749 22.0088C14.9484 22.3018 14.9551 23.1807 15.0816 23.4271L15.1881 23.6268H19.13H23.0786L23.265 23.4337C23.558 23.1274 23.6645 22.355 23.4848 21.829L23.4049 21.5959L22.0398 21.5626L20.6748 21.5294L20.6415 11.0753C20.6082 1.18728 20.6016 0.607979 20.4884 0.381586C20.3552 0.108582 20.1355 -0.017931 19.8225 0.00204468C19.7027 0.00870323 19.403 0.0220203 19.1433 0.0353374Z" fill="#1B2954"/>
<path d="M76.3543 0.0619774C74.5365 0.155197 73.1915 0.341639 72.7121 0.57469C72.3791 0.734497 72.226 1.06077 72.2726 1.53353C72.3192 1.99298 72.4857 2.43244 72.6521 2.51901C72.7187 2.55896 73.3779 2.58559 74.137 2.58559H75.5087V11.7811C75.5087 17.9537 75.4887 21.0166 75.4421 21.1032C75.3089 21.3429 75.0026 21.4295 74.0571 21.5027C73.1715 21.5626 73.1382 21.5693 72.9451 21.7624C72.7454 21.9622 72.7454 21.9755 72.7454 22.688C72.7454 23.2007 72.772 23.4404 72.8386 23.5136C72.9185 23.6202 73.2847 23.6268 76.8404 23.6268H80.7557L80.9621 23.4604C81.295 23.174 81.4016 22.2685 81.1618 21.7424L81.0819 21.5626L79.7436 21.5493L78.4052 21.5294L78.3719 11.0753C78.3453 3.27143 78.3186 0.57469 78.2587 0.448177C78.1388 0.175173 77.8525 -0.0112686 77.5795 0.0020504C77.4463 0.0020504 76.8937 0.0286846 76.3543 0.0619774Z" fill="#1B2954"/>
<path d="M28.1591 0.621295C27.6597 0.781102 27.2336 1.11403 27.0072 1.52021C26.8141 1.86646 26.8008 1.92638 26.8008 2.58559C26.8008 3.1782 26.8208 3.32469 26.9473 3.55774C27.1803 3.99721 27.4134 4.23026 27.8129 4.43002C28.1325 4.58317 28.2723 4.60981 28.7584 4.60981C29.4309 4.60981 29.7972 4.47663 30.1967 4.08378C30.776 3.50448 30.9624 2.49902 30.6361 1.7466C30.2433 0.834371 29.098 0.321657 28.1591 0.621295Z" fill="#E6516B"/>
<path d="M6.15896 8.41853C3.90834 8.5517 2.27033 9.0511 1.46463 9.85679C0.985213 10.3429 0.845382 10.6492 0.812089 11.3084C0.785454 11.8344 0.798771 11.9276 0.965237 12.3005C1.33146 13.1129 1.99732 13.4857 2.96282 13.4258C3.74854 13.3725 4.39442 12.9198 4.70072 12.2006C4.83389 11.8943 4.85387 10.9821 4.73401 10.6891L4.66077 10.496L5.93922 10.5226C7.17107 10.5426 7.23765 10.5493 7.60388 10.7224C8.05 10.9288 8.51611 11.3816 8.71587 11.8011C8.9356 12.2472 9.0488 12.9131 9.09541 13.9785L9.14202 14.9573L6.78487 14.9839C4.50762 15.0172 4.40774 15.0239 3.76186 15.1903C1.30483 15.8429 -0.0668486 17.6341 0.0862996 19.9979C0.159544 21.1032 0.492475 21.8556 1.23824 22.6014C1.59115 22.9609 1.84417 23.1407 2.27033 23.3538C3.18921 23.7999 3.50217 23.8599 4.9937 23.8532C6.17893 23.8465 6.35206 23.8332 6.95799 23.6734C7.59722 23.5003 8.66926 23.0342 9.05545 22.7612C9.16199 22.6879 9.25521 22.628 9.27519 22.628C9.28851 22.628 9.39504 22.8145 9.50824 23.0475C9.84783 23.7333 9.92107 23.7733 10.8733 23.8399C11.8254 23.8998 13.5833 23.8066 14.116 23.6601C14.7219 23.5003 14.955 23.0808 14.9017 22.2218C14.8618 21.5427 14.915 21.5626 13.3769 21.5626H12.0518V17.6807C12.0518 13.5923 12.0052 12.6001 11.7921 11.7545C11.2528 9.65703 9.71466 8.53838 7.22434 8.42518C6.85811 8.41187 6.37869 8.40521 6.15896 8.41853ZM9.12204 18.6994V20.1577L8.64262 20.5039C8.05666 20.9101 7.23765 21.3163 6.69165 21.4628C6.47191 21.516 6.01913 21.5826 5.68619 21.6092C4.95375 21.6559 4.34781 21.496 3.84842 21.1365C3.22917 20.677 2.92287 19.625 3.16258 18.7993C3.36234 18.1068 4.17469 17.441 4.98704 17.3011C5.15351 17.2745 6.1523 17.2479 7.21102 17.2412L9.12204 17.2345V18.6994Z" fill="#1B2954"/>
<path d="M29.0315 8.41853C28.0393 8.46514 26.5877 8.585 26.0218 8.67822C24.6434 8.89795 24.437 9.04444 24.437 9.83016C24.437 10.3429 24.5369 10.6758 24.75 10.8423C24.9098 10.9688 25.0097 10.9754 26.2748 10.9754H27.6331L27.6198 16.0826L27.5999 21.1898L27.3934 21.3096C27.2336 21.4028 26.9407 21.4494 26.2615 21.4961C25.5423 21.5493 25.3026 21.5893 25.1695 21.6892C24.9364 21.8556 24.8232 22.2951 24.8565 22.881C24.9031 23.7001 24.4903 23.6268 29.0514 23.6268H32.9734L33.1598 23.427C33.2597 23.3205 33.3596 23.1341 33.3862 23.0209C33.4594 22.6347 33.4328 21.9622 33.3263 21.7624L33.2197 21.5626H31.8947H30.5696L30.5496 15.3169C30.5296 9.77689 30.5163 9.0511 30.4231 8.84468C30.23 8.41853 30.0902 8.37192 29.0315 8.41853Z" fill="#1B2954"/>
<path d="M63.5562 8.44517C61.5121 8.59166 59.9806 9.0844 59.2148 9.83682C58.7154 10.3296 58.529 10.749 58.529 11.375C58.529 12.0675 58.6688 12.447 59.0883 12.8798C59.5078 13.306 59.9606 13.4658 60.6598 13.4258C61.4921 13.3792 62.2578 12.8132 62.4709 12.0741C62.5641 11.7412 62.5641 10.9421 62.4642 10.6891L62.391 10.496L63.6694 10.5227C64.888 10.5426 64.9745 10.5493 65.3208 10.7158C65.5205 10.809 65.8135 11.0087 65.9667 11.1619C66.5393 11.7212 66.7524 12.427 66.8256 14.0317L66.8722 14.9573L64.5151 14.9839C62.2378 15.0172 62.138 15.0239 61.4921 15.1903C59.5145 15.7164 58.2626 16.9216 57.9031 18.6528C57.4836 20.677 58.3093 22.5281 59.9939 23.3471C60.9194 23.7999 61.2324 23.8599 62.7572 23.8599C63.9424 23.8599 64.1489 23.8399 64.6216 23.7067C65.4606 23.467 65.9866 23.2473 66.5127 22.921C66.779 22.7545 67.0054 22.628 67.0187 22.6413C67.0254 22.6547 67.1253 22.8411 67.2385 23.0608C67.5714 23.7333 67.6513 23.7733 68.6035 23.8399C69.549 23.8998 71.3135 23.8066 71.8396 23.6668C72.2857 23.5469 72.4122 23.4271 72.552 23.0142C72.6786 22.628 72.6586 21.8423 72.5187 21.6692C72.4388 21.576 72.2457 21.5626 71.1071 21.5626H69.7821V17.8138C69.7754 15.7563 69.7488 13.6922 69.7221 13.2327C69.589 11.355 69.0762 10.1897 68.0175 9.39069C66.9455 8.585 65.5871 8.29868 63.5562 8.44517ZM66.8523 18.6928V20.151L66.4394 20.464C65.9267 20.8435 64.9546 21.3229 64.4219 21.4694C63.0369 21.829 61.7518 21.5427 61.1991 20.7436C60.966 20.404 60.7929 19.8181 60.7929 19.3653C60.7929 18.4131 61.6585 17.4809 62.7039 17.3011C62.8771 17.2745 63.8825 17.2479 64.9412 17.2412L66.8523 17.2345V18.6928Z" fill="#1B2954"/>
<path d="M88.3131 8.45183C85.7229 8.62495 83.965 9.44396 83.4989 10.6958C83.0927 11.7745 83.6654 13.0529 84.6908 13.3526C85.4632 13.5723 86.2955 13.3859 86.8349 12.8665C87.2344 12.4736 87.3942 12.0941 87.3942 11.4748C87.3942 11.1819 87.3676 10.8423 87.3343 10.7224L87.281 10.496L88.5328 10.5227C89.7247 10.5426 89.8113 10.5493 90.1642 10.7158C90.89 11.0553 91.3161 11.6014 91.5225 12.447C91.5825 12.68 91.6424 13.3392 91.669 13.9119L91.709 14.9573L89.3518 14.9906C87.2677 15.0172 86.9347 15.0372 86.4553 15.1571C85.2901 15.4567 84.4844 15.9095 83.7985 16.6552C83.1327 17.3744 82.8197 18.0602 82.6932 19.1123C82.4668 20.9967 83.3125 22.6214 84.9238 23.3871C85.7828 23.7999 86.1091 23.8599 87.5607 23.8599C88.7126 23.8599 88.9257 23.8399 89.4251 23.7067C90.2041 23.4936 90.9099 23.2007 91.416 22.8877C91.649 22.7412 91.8555 22.6413 91.8821 22.6613C91.9021 22.6879 92.0153 22.8877 92.1285 23.1141C92.4348 23.7267 92.5746 23.7999 93.5667 23.8465C94.5256 23.8932 96.1436 23.7999 96.7163 23.6668C97.1624 23.5602 97.3089 23.4271 97.4287 23.0076C97.5419 22.608 97.5219 21.9289 97.3888 21.7291L97.2822 21.5626H95.9505H94.6188V17.4143C94.6188 12.3271 94.5722 11.8744 93.9662 10.6758C93.8131 10.3628 93.58 10.0566 93.2604 9.7436C92.4814 8.9712 91.5558 8.57834 90.1842 8.44517C89.4517 8.37192 89.4584 8.37192 88.3131 8.45183ZM91.689 18.6994V20.1643L91.2961 20.4507C90.7701 20.8435 89.9644 21.2497 89.3585 21.4361C88.6926 21.6425 87.574 21.6559 87.028 21.4694C86.5019 21.283 85.9426 20.717 85.7961 20.2109C85.643 19.6716 85.6496 18.9924 85.8161 18.6129C86.0891 18.0069 86.8282 17.4543 87.574 17.3078C87.7338 17.2745 88.7193 17.2479 89.778 17.2412L91.689 17.2345V18.6994Z" fill="#1B2954"/>
<path d="M33.9388 8.78476C33.6059 8.97786 33.4394 10.0233 33.6525 10.5426L33.7523 10.7757H34.7844C35.3504 10.7757 35.8298 10.8023 35.8498 10.829C35.8631 10.8556 36.6488 13.6189 37.5877 16.9682C38.5266 20.3175 39.3389 23.214 39.3922 23.4004C39.5254 23.8665 39.6452 23.9131 40.7439 23.8798C41.4031 23.8665 41.6361 23.8332 41.7094 23.76C41.7627 23.7067 42.6083 21.6892 43.5871 19.2787C44.5659 16.8683 45.3849 14.924 45.4116 14.9506C45.4382 14.9773 46.2306 16.9349 47.1695 19.2987C48.115 21.6625 48.9406 23.6534 49.0139 23.7267C49.1204 23.8399 49.2536 23.8599 49.8595 23.8798C50.7451 23.9131 51.0315 23.8199 51.1247 23.4803C51.6307 21.6958 54.7736 11.3017 54.8402 11.1952C54.9867 10.9688 55.2996 10.8356 55.8123 10.7957C56.5248 10.7357 56.6313 10.5493 56.5914 9.49057C56.5714 9.14432 56.5315 8.8913 56.4715 8.82471C56.3916 8.72483 56.0987 8.71151 53.4685 8.71151C50.7784 8.71151 50.552 8.71817 50.4588 8.82471C50.2258 9.09105 50.1725 9.28415 50.1725 9.88343C50.1725 10.7823 50.1592 10.7757 51.4509 10.7757C52.0436 10.7757 52.4697 10.8023 52.4697 10.8356C52.4697 10.9355 50.2058 20.3108 50.1525 20.4573C50.1126 20.5439 49.5732 19.1123 48.2814 15.5299C47.276 12.7466 46.417 10.3628 46.3638 10.2297C46.2506 9.94336 46.0308 9.84348 45.5314 9.84348C44.8589 9.84348 45.052 9.4373 42.9745 15.197C41.9558 18.0336 41.0968 20.3375 41.0768 20.3108C40.9969 20.2109 39.0726 11.5281 39.0992 11.3417C39.1325 11.0553 39.4588 10.8622 40.0048 10.809C40.5175 10.7624 40.5974 10.7291 40.7772 10.4827C40.897 10.3229 40.917 10.203 40.917 9.61708C40.917 9.13101 40.8904 8.89795 40.8238 8.82471C40.7439 8.72483 40.4243 8.71151 37.3946 8.71151C35.144 8.71817 34.0187 8.73815 33.9388 8.78476Z" fill="#1B2954"/>
<path d="M73.5442 26.0772C73.3977 26.1438 72.652 26.6099 71.8796 27.1026C71.1138 27.5953 70.4147 28.0348 70.3348 28.0748C70.2282 28.1347 62.0648 28.1547 36.6288 28.1547H3.06943L2.90296 28.3012C2.66325 28.5209 2.64327 28.8671 2.86301 29.0869C2.99618 29.22 3.08274 29.22 36.5689 29.22H70.1483L71.7464 30.2854C72.6253 30.8714 73.4776 31.3908 73.6441 31.4507C74.0236 31.5839 75.0158 31.6038 85.9625 31.6837C93.1538 31.737 94.5189 31.737 94.8851 31.6571C95.8972 31.444 96.6829 30.6916 96.9626 29.6928C97.2755 28.5608 96.916 27.4156 96.0237 26.7164C95.3179 26.1637 95.218 26.1438 92.721 26.0838C91.5158 26.0572 86.7616 26.0173 82.1671 25.9973C74.0503 25.9507 73.8039 25.9507 73.5442 26.0772ZM74.3499 27.1759C74.2966 27.4755 74.4098 28.0548 74.6029 28.4277L74.7627 28.7406L74.5563 29.1468C74.4032 29.4531 74.3499 29.6728 74.3233 30.0524C74.31 30.3254 74.2833 30.5518 74.2633 30.5518C74.1834 30.5518 73.6974 30.3187 73.431 30.1389L73.1114 29.9392V28.7207V27.5021L73.431 27.309C73.8705 27.0493 74.0503 26.9694 74.2367 26.9628C74.3765 26.9561 74.3899 26.9761 74.3499 27.1759ZM86.3487 27.0627L88.2265 27.1026V27.7285V28.3544L85.5164 28.3211C84.0182 28.3012 81.1883 28.2679 79.224 28.2479L75.6483 28.2079L75.5351 28.0348C75.4086 27.8417 75.3354 27.3756 75.402 27.1292L75.4419 26.9628L79.9565 26.9961C82.4335 27.0094 85.31 27.0427 86.3487 27.0627ZM89.9377 28.3345C89.9111 29.0269 89.8911 29.8326 89.8911 30.1323V30.6849H89.5582H89.2253V29.533C89.2253 28.9071 89.2452 28.0947 89.2719 27.7352L89.3118 27.0893H89.6447H89.9777L89.9377 28.3345ZM91.6224 28.8871V30.6849H91.2894H90.9565V28.8871V27.0893H91.2894H91.6224V28.8871ZM94.6986 27.1559C95.1581 27.2824 95.5643 27.6286 95.8106 28.0947C96.0104 28.4809 96.0304 28.5608 95.9971 28.967C95.9571 29.5463 95.6974 30.0324 95.258 30.332C94.8118 30.6383 94.5788 30.6849 93.54 30.6849H92.6211V28.8871V27.0893H93.54C94.0394 27.0893 94.5655 27.1226 94.6986 27.1559ZM72.1126 28.7207C72.1126 28.9937 72.0993 29.22 72.0793 29.22C72.0194 29.22 71.3136 28.7606 71.3136 28.7207C71.3136 28.6807 71.9994 28.2213 72.0593 28.2213C72.0926 28.2213 72.1126 28.4476 72.1126 28.7207ZM86.948 29.3932L88.2331 29.4331L88.2131 30.0324L88.1932 30.6317L85.4298 30.6184C83.9117 30.605 81.0352 30.5851 79.0376 30.5584L75.4086 30.5185L75.3687 30.2854C75.3487 30.1589 75.3687 29.9259 75.4153 29.7661C75.5684 29.2267 75.0757 29.2667 80.6689 29.3133C83.4123 29.3399 86.2422 29.3732 86.948 29.3932Z" fill="#013769"/>
<path d="M0.17288 28.2945C0.0397076 28.401 -0.000244141 28.4876 -0.000244141 28.694C-0.000244141 29.0336 0.179538 29.2201 0.519128 29.2201C0.832083 29.2201 1.04516 29.0802 1.09843 28.8272C1.21162 28.3012 0.60569 27.9549 0.17288 28.2945Z" fill="#013769"/>
<path d="M70.0085 32.6226C69.8887 32.7558 69.882 32.9156 69.8621 35.6057C69.8487 37.1638 69.8621 38.5088 69.882 38.5954C69.9619 38.9283 69.862 38.9217 77.3597 38.9749C84.9305 39.0282 84.4711 39.0482 84.6708 38.6686C84.784 38.4422 84.7108 38.1959 84.4711 38.0427C84.3246 37.9428 83.6254 37.9229 77.6327 37.8696C73.9638 37.8363 70.9474 37.803 70.9407 37.7897C70.9274 37.7764 70.9341 36.8175 70.9607 35.6589L71.0007 33.5482H71.56H72.1127V34.4404C72.1127 35.2861 72.1193 35.3327 72.2791 35.5058C72.4989 35.7388 72.8251 35.7455 73.0515 35.5058C73.2047 35.346 73.2113 35.2794 73.2313 34.4404L73.2579 33.5482H74.8494H76.4408V34.4138C76.4408 35.5457 76.534 35.7455 77.0467 35.7455C77.1666 35.7455 77.3064 35.6789 77.4063 35.579C77.5661 35.4259 77.5727 35.3859 77.5727 34.5137V33.6147H79.1708H80.7689V34.4471C80.7689 35.3859 80.8354 35.6057 81.1617 35.7388C81.3948 35.8387 81.5879 35.7921 81.7677 35.5924C81.8875 35.4658 81.9008 35.3593 81.9008 34.5336V33.6147H83.4989H85.097V34.487C85.097 35.3593 85.1369 35.5591 85.3567 35.7255C85.5364 35.8654 85.8827 35.8254 86.0625 35.6456C86.2223 35.4925 86.2289 35.4525 86.2289 34.5802V33.6813H87.827H89.4251V34.6135C89.4251 35.5191 89.4317 35.5591 89.5915 35.7122C89.7979 35.9253 90.0909 35.9253 90.3373 35.7189C90.5237 35.5591 90.5237 35.5524 90.5437 34.6069L90.5703 33.6614L91.2762 33.708C91.6624 33.7279 92.3748 33.7479 92.8676 33.7479H93.7532V34.6601C93.7598 35.6656 93.7865 35.7588 94.146 35.8853C94.3125 35.9453 94.3857 35.9386 94.5655 35.8321C94.8385 35.6723 94.8718 35.5524 94.8785 34.5603L94.8851 33.7479H95.4511H96.0171V34.9265C96.0171 35.579 95.9971 36.5379 95.9705 37.0572L95.9305 38.0094H92.761C89.4184 38.0161 89.4717 38.0094 89.3052 38.3224C89.1854 38.5421 89.2053 38.6553 89.4117 38.8684L89.5915 39.0681L93.0673 39.1148C96.7962 39.1614 96.8627 39.1614 97.0092 38.8351C97.0625 38.7219 97.0825 37.7964 97.0825 35.8121C97.0825 33.0021 97.0825 32.9489 96.9426 32.8224C96.8228 32.7158 96.6696 32.6892 95.7974 32.6559C94.752 32.6226 75.8748 32.4761 72.2059 32.4828C70.1883 32.4828 70.1351 32.4894 70.0085 32.6226Z" fill="#013769"/>
<path d="M13.9963 34.0276C13.943 34.0808 13.9164 34.3938 13.9164 35.0064V35.9053L13.7366 35.7255C13.1506 35.1662 12.1851 35.2328 11.6458 35.872C11.3528 36.2116 11.2529 36.5246 11.2529 37.1305C11.2529 37.51 11.2862 37.6632 11.4394 37.9495C11.8922 38.8218 12.9575 39.0548 13.65 38.4356L13.9097 38.2025L13.9297 38.4156C13.9563 38.6753 14.1228 38.8085 14.2759 38.6819C14.3692 38.602 14.3825 38.3157 14.3825 36.3514C14.3825 34.1008 14.3692 33.9477 14.1494 33.9477C14.1095 33.9477 14.0429 33.981 13.9963 34.0276ZM13.3903 35.9652C14.0495 36.398 14.0895 37.5633 13.4636 38.0893C12.5181 38.8817 11.2929 37.6099 11.8589 36.4313C12.1452 35.8387 12.871 35.619 13.3903 35.9652Z" fill="#1B2954"/>
<path d="M32.0011 34.0542C31.9078 34.1408 31.8945 34.4404 31.8945 36.3181C31.8945 38.5288 31.9145 38.7419 32.1476 38.7419C32.3673 38.7419 32.4272 38.5954 32.4272 38.0827C32.4272 37.5899 32.4339 37.57 32.647 37.4035L32.86 37.2304L33.5259 37.9362C33.8855 38.3224 34.2384 38.6686 34.305 38.7019C34.4448 38.7752 34.6246 38.6486 34.6246 38.4755C34.6246 38.4156 34.3249 38.0427 33.9587 37.6499C33.5925 37.257 33.2928 36.9107 33.2928 36.8841C33.2928 36.8508 33.5792 36.5845 33.9254 36.2848C34.5713 35.7189 34.5846 35.6989 34.518 35.5191C34.4315 35.286 34.1784 35.4259 33.3261 36.1783L32.4605 36.9507L32.4405 35.5324C32.4272 34.2939 32.4139 34.1008 32.314 34.0276C32.1675 33.921 32.1276 33.9277 32.0011 34.0542Z" fill="#1B2954"/>
<path d="M48.1549 34.0276C48.0949 34.0875 48.075 34.7001 48.075 36.3847C48.075 38.6287 48.075 38.6686 48.2081 38.7086C48.5344 38.8085 48.5411 38.7485 48.5411 36.3514C48.5411 34.1008 48.5277 33.9477 48.308 33.9477C48.2681 33.9477 48.2015 33.981 48.1549 34.0276Z" fill="#1B2954"/>
<path d="M55.799 34.0143C55.7191 34.0609 55.6925 34.2606 55.6792 34.9398L55.6525 35.7988L55.3595 35.5923C54.9867 35.326 54.3608 35.2661 53.9746 35.4459C53.1489 35.8387 52.796 36.9374 53.2022 37.8629C53.595 38.7618 54.6204 39.0748 55.3595 38.5088L55.6525 38.2891L55.7125 38.4955C55.7724 38.7219 55.9455 38.8018 56.0987 38.6753C56.1852 38.6087 56.1985 38.2292 56.1985 36.3381C56.1985 34.1807 56.1919 34.0808 56.072 34.0143C55.9122 33.9344 55.9255 33.9344 55.799 34.0143ZM55.1332 35.9319C55.4128 36.0851 55.6525 36.4779 55.7058 36.8841C55.819 37.7298 55.1798 38.4556 54.4407 38.3157C54.1477 38.2625 53.7482 37.9229 53.6283 37.6299C53.3953 37.0772 53.6083 36.2649 54.0611 35.9652C54.3408 35.7721 54.8069 35.7655 55.1332 35.9319Z" fill="#1B2954"/>
<path d="M28.3854 34.1474C28.0991 34.3205 28.0325 34.467 27.9859 35.0197L27.946 35.4791H27.6596C27.4266 35.4791 27.3667 35.5058 27.3267 35.6256C27.2734 35.8121 27.4466 35.9452 27.7462 35.9452H27.9659V37.217C27.9659 38.5155 28.0059 38.7419 28.219 38.7419C28.4786 38.7419 28.4986 38.6287 28.4986 37.2637V35.9452H28.8582C29.0979 35.9452 29.2577 35.912 29.3243 35.8387C29.5507 35.619 29.3776 35.4791 28.8848 35.4791H28.4986V35.0929C28.4986 34.5469 28.5918 34.4471 29.0779 34.4471C29.3909 34.4471 29.4641 34.4271 29.4841 34.3272C29.5307 34.1075 29.3709 34.0142 28.9714 34.0142C28.7184 34.0142 28.5319 34.0542 28.3854 34.1474Z" fill="#1B2954"/>
<path d="M0.272947 35.4658C0.226337 35.5591 0.299582 35.7988 0.592561 36.4846C1.53808 38.662 1.56472 38.7086 1.71121 38.7286C1.80443 38.7419 1.89099 38.6953 1.95092 38.5954C2.16399 38.2624 3.26932 35.599 3.23603 35.5058C3.18276 35.3593 2.99632 35.3193 2.88978 35.4259C2.83651 35.4791 2.57683 36.0318 2.31048 36.6511C2.04414 37.277 1.80443 37.783 1.76448 37.7897C1.73118 37.7897 1.47816 37.277 1.21181 36.6511C0.945467 36.0318 0.69244 35.4791 0.652488 35.4325C0.552609 35.306 0.346192 35.326 0.272947 35.4658Z" fill="#1B2954"/>
<path d="M4.6941 35.4725C4.3878 35.6123 4.02158 35.9985 3.87509 36.3381C3.81516 36.4779 3.77521 36.7842 3.77521 37.0772C3.76855 37.4967 3.80184 37.6365 3.94833 37.9295C4.44107 38.875 5.75282 39.0948 6.54519 38.3557C6.75161 38.1626 6.77159 38.0627 6.6251 37.9428C6.54519 37.8762 6.47195 37.8962 6.21892 38.0627C5.8527 38.3091 5.60633 38.369 5.22013 38.3091C4.74071 38.2425 4.26129 37.7231 4.26129 37.277C4.26129 37.1505 4.30124 37.1438 5.48647 37.1438C6.93139 37.1438 6.92473 37.1438 6.79822 36.5712C6.57849 35.6057 5.56638 35.073 4.6941 35.4725ZM5.91262 35.9919C6.11238 36.1384 6.35875 36.5712 6.29216 36.6777C6.2389 36.7576 4.35451 36.7709 4.30124 36.6844C4.22799 36.5712 4.56758 36.0584 4.79398 35.9319C5.09361 35.7655 5.65294 35.7988 5.91262 35.9919Z" fill="#1B2954"/>
<path d="M8.66934 35.4858C8.50953 35.5657 8.32975 35.7055 8.26982 35.8054L8.15662 35.9719L8.12333 35.7521C8.08338 35.5058 7.93689 35.3659 7.76376 35.4325C7.67054 35.4725 7.65723 35.6523 7.65723 37.0706C7.65723 38.622 7.66389 38.6686 7.7904 38.7086C8.07672 38.8018 8.11667 38.6686 8.13665 37.4767C8.15662 36.3847 8.16328 36.3514 8.32309 36.1783C8.5628 35.9186 8.80917 35.8121 9.14876 35.8121C9.38847 35.8121 9.495 35.852 9.66813 36.0052L9.88786 36.1983L9.90784 37.3835C9.92781 38.5887 9.96111 38.7419 10.1942 38.7419C10.4272 38.7419 10.4672 38.5155 10.4405 37.3169C10.4139 36.0318 10.3406 35.7721 9.92781 35.4991C9.62152 35.2927 9.06885 35.2927 8.66934 35.4858Z" fill="#1B2954"/>
<path d="M16.1402 35.5058C15.2679 35.912 14.9284 37.0439 15.4211 37.9428C16.027 39.0548 17.6384 39.0748 18.2843 37.9761C18.524 37.5633 18.5839 36.8775 18.4108 36.4313C18.2577 36.0385 17.8848 35.6256 17.5452 35.4725C17.159 35.2927 16.5664 35.306 16.1402 35.5058ZM17.3388 35.9053C17.7716 36.0851 18.0979 36.7443 18.0046 37.2637C17.8848 37.9495 17.3388 38.4023 16.7262 38.3157C16.36 38.2691 16.1868 38.1559 15.9338 37.8296C15.7673 37.6099 15.7474 37.5367 15.7474 37.0772C15.7474 36.6377 15.774 36.5312 15.9205 36.3048C16.2201 35.852 16.8127 35.6856 17.3388 35.9053Z" fill="#1B2954"/>
<path d="M20.4085 35.4725C20.2953 35.5391 20.1222 35.6922 20.0223 35.8054L19.8425 36.0252V35.8454C19.8425 35.6057 19.7293 35.4126 19.5895 35.4126C19.3298 35.4126 19.3098 35.5191 19.3098 37.0772C19.3098 38.1559 19.3298 38.602 19.3897 38.662C19.4963 38.7685 19.6894 38.7618 19.7559 38.6553C19.7826 38.6154 19.8225 38.096 19.8425 37.5034C19.8758 36.458 19.8825 36.4313 20.0622 36.1916C20.3153 35.8587 20.4751 35.7788 20.9079 35.7788C21.2075 35.7788 21.2741 35.7588 21.2941 35.6589C21.3074 35.5923 21.2808 35.4991 21.2408 35.4459C21.1276 35.306 20.6482 35.3193 20.4085 35.4725Z" fill="#1B2954"/>
<path d="M24.4704 35.4725C23.8445 35.7522 23.5049 36.3048 23.5049 37.0439C23.5049 38.096 24.1441 38.7685 25.1362 38.7685C25.6889 38.7685 26.0152 38.6287 26.3814 38.2225C26.681 37.8896 26.8009 37.5566 26.7942 37.0106C26.7876 36.0385 26.0884 35.346 25.1229 35.346C24.8965 35.346 24.6302 35.3992 24.4704 35.4725ZM25.6956 35.9519C26.0684 36.1583 26.2615 36.4846 26.2882 36.9707C26.3281 37.6565 25.9353 38.2025 25.3227 38.3157C24.5636 38.4556 23.8711 37.6965 23.9976 36.8508C24.1241 36.0118 24.9898 35.5524 25.6956 35.9519Z" fill="#1B2954"/>
<path d="M36.489 35.4725C36.3624 35.5457 36.196 35.6589 36.1294 35.7388C35.9563 35.9319 35.8897 35.912 35.8897 35.6856C35.8897 35.4525 35.8098 35.3859 35.5834 35.4392L35.4236 35.4791V37.0373C35.4236 38.3756 35.4369 38.602 35.5301 38.6819C35.6034 38.7419 35.6633 38.7485 35.7432 38.6953C35.8364 38.642 35.8631 38.4622 35.8897 37.53C35.9163 36.6244 35.943 36.4047 36.0428 36.2582C36.4024 35.7055 37.3679 35.6523 37.6076 36.1783C37.6609 36.2915 37.6875 36.731 37.6875 37.4168C37.6875 38.5155 37.7341 38.7419 37.9472 38.7419C38.2069 38.7419 38.2335 38.602 38.2069 37.3302C38.1869 35.9719 38.1336 35.7921 37.6875 35.4991C37.4079 35.306 36.8286 35.2927 36.489 35.4725Z" fill="#1B2954"/>
<path d="M39.9848 35.4725C39.3589 35.7522 39.0193 36.3048 39.0193 37.0439C39.0193 38.096 39.6585 38.7685 40.6506 38.7685C41.2033 38.7685 41.5296 38.6287 41.8958 38.2225C42.1954 37.8896 42.3153 37.5566 42.3086 37.0106C42.302 36.0385 41.6028 35.346 40.6373 35.346C40.4109 35.346 40.1446 35.3992 39.9848 35.4725ZM41.21 35.9519C41.5829 36.1583 41.776 36.4846 41.8026 36.9707C41.8425 37.6565 41.4497 38.2025 40.8371 38.3157C40.078 38.4556 39.3855 37.6965 39.512 36.8508C39.6385 36.0118 40.5042 35.5524 41.21 35.9519Z" fill="#1B2954"/>
<path d="M42.9679 35.3926C42.9213 35.4059 42.8813 35.4925 42.8813 35.5724C42.8813 35.7521 43.8535 38.5288 43.96 38.6553C44 38.7019 44.0866 38.7419 44.1598 38.7419C44.2996 38.7419 44.3862 38.5687 44.7791 37.4568C44.9189 37.0639 45.0521 36.7643 45.0787 36.7909C45.1053 36.8175 45.2718 37.217 45.4449 37.6765C45.8378 38.7086 45.9909 38.9083 46.204 38.6486C46.3172 38.5155 47.276 35.7588 47.276 35.5724C47.276 35.3992 47.0496 35.2927 46.9098 35.4126C46.8632 35.4525 46.6435 35.9919 46.4304 36.6111C46.2173 37.237 46.0242 37.7431 46.0042 37.7431C45.9776 37.7431 45.8045 37.3502 45.6114 36.8708C45.112 35.6256 45.0254 35.6323 44.526 36.9307C44.3396 37.4168 44.1665 37.7897 44.1398 37.7631C44.1132 37.7298 43.9268 37.217 43.7203 36.6111C43.5139 36.0118 43.3075 35.4791 43.2675 35.4325C43.1943 35.346 43.1077 35.3327 42.9679 35.3926Z" fill="#1B2954"/>
<path d="M50.2192 35.4858C49.2071 35.9919 49.0207 37.6232 49.8929 38.389C50.1526 38.6154 50.6853 38.8085 51.0449 38.8085C51.5376 38.8085 52.2701 38.389 52.2701 38.1093C52.2701 37.8763 52.0836 37.8496 51.8106 38.0361C51.3245 38.3756 50.9517 38.4223 50.4922 38.2158C50.1859 38.076 49.9129 37.7164 49.8397 37.3569L49.7931 37.1438H50.9916C51.6508 37.1438 52.2368 37.1238 52.2967 37.1039C52.4432 37.0506 52.4365 36.5845 52.2767 36.2449C51.9238 35.4725 50.965 35.1196 50.2192 35.4858ZM51.3312 35.912C51.5975 36.0451 51.8706 36.3914 51.8706 36.5845V36.7443H50.8718C49.7531 36.7443 49.7398 36.7376 50.0061 36.2915C50.2725 35.8587 50.8851 35.6789 51.3312 35.912Z" fill="#1B2954"/>
<path d="M57.8766 35.4858C57.284 35.7788 56.9577 36.4313 57.011 37.2037C57.031 37.4434 57.0976 37.7497 57.1642 37.8763C57.6569 38.8551 58.8821 39.0948 59.5812 38.3557L59.7411 38.1759L59.7144 38.5887C59.6811 39.0349 59.548 39.2546 59.1817 39.4477C58.9487 39.5675 58.3494 39.5675 57.9965 39.441C57.6303 39.3145 57.4904 39.3145 57.4372 39.4477C57.3173 39.754 58.0564 40.047 58.8022 39.9937C59.3881 39.9471 59.7877 39.7207 60.0407 39.2879L60.2271 38.9749L60.2471 37.2304C60.2671 35.5324 60.2671 35.4858 60.1339 35.4126C60.0207 35.3593 59.9741 35.366 59.8609 35.4792C59.7877 35.5524 59.7277 35.6789 59.7277 35.7588C59.7277 35.8986 59.7211 35.8986 59.548 35.7255C59.1285 35.3327 58.4027 35.2261 57.8766 35.4858ZM59.1218 35.912C59.3948 36.0518 59.6478 36.3714 59.7344 36.6977C59.8276 37.0439 59.7344 37.5899 59.5213 37.8829C59.3549 38.1226 58.922 38.3424 58.6291 38.3424C58.3361 38.3424 57.9033 38.1226 57.7368 37.8829C57.4039 37.4235 57.4105 36.671 57.7435 36.2449C58.0631 35.8321 58.6823 35.6856 59.1218 35.912Z" fill="#1B2954"/>
<path d="M61.8052 35.4858C60.793 35.9919 60.6066 37.6232 61.4789 38.389C61.7386 38.6154 62.2713 38.8085 62.6308 38.8085C63.1236 38.8085 63.856 38.389 63.856 38.1093C63.856 37.8763 63.6696 37.8496 63.3966 38.0361C62.9105 38.3756 62.5376 38.4223 62.0782 38.2158C61.7719 38.076 61.4989 37.7164 61.4256 37.3569L61.379 37.1438H62.5776C63.2368 37.1438 63.8227 37.1238 63.8826 37.1039C64.0291 37.0506 64.0225 36.5845 63.8627 36.2449C63.5098 35.4725 62.5509 35.1196 61.8052 35.4858ZM62.9171 35.912C63.1835 36.0451 63.4565 36.3914 63.4565 36.5845V36.7443H62.4577C61.339 36.7443 61.3257 36.7376 61.5921 36.2915C61.8584 35.8587 62.471 35.6789 62.9171 35.912Z" fill="#1B2954"/>
</svg>
